<svg xmlns="http://www.w3.org/2000/svg" enable-background="new 0 0 48 48" viewBox="0 0 48 48"><path fill="#010101" d="M45.5,34.6H2.5c-1.1,0-2-0.9-2-2V2.5c0-1.1,0.9-2,2-2h43.1c1.1,0,2,0.9,2,2v30.2    C47.5,33.7,46.6,34.6,45.5,34.6z M4.4,30.7h39.2V4.4H4.4V30.7z"/><path fill="#010101" d="M41.2 47.5c-.5 0-1-.2-1.4-.6L28.3 34.6c-.7-.8-.7-2 .1-2.8.8-.7 2-.7 2.8.1l11.4 12.2c.7.8.7 2-.1 2.8C42.1 47.3 41.6 47.5 41.2 47.5zM6.8 47.5c-.5 0-1-.2-1.3-.5-.8-.7-.8-2-.1-2.8L16.8 32c.7-.8 2-.8 2.8-.1.8.7.8 2 .1 2.8L8.3 46.9C7.9 47.3 7.4 47.5 6.8 47.5z"/></svg>